<?xml version="1.0" encoding="utf-8"?>
<!-- Generator: Adobe Illustrator 16.0.0, SVG Export Plug-In . SVG Version: 6.00 Build 0)  -->
<!DOCTYPE svg PUBLIC "-//W3C//DTD SVG 1.1//EN" "http://www.w3.org/Graphics/SVG/1.1/DTD/svg11.dtd">
<svg version="1.1" id="Capa_1" xmlns="http://www.w3.org/2000/svg" xmlns:xlink="http://www.w3.org/1999/xlink" x="0px" y="0px"
	 width="350px" height="247.143px" viewBox="0 0 350 247.143" enable-background="new 0 0 350 247.143" xml:space="preserve">
<g>
	<g>
		<g>
			<path fill-rule="evenodd" clip-rule="evenodd" fill="#1D1D1B" d="M127.06,87.528c-2.387,4.761-4.775,9.523-7.744,15.439
				c4.678,0.578,9.042,1.118,14.266,1.763c0,23.217,0.033,46.547-0.015,69.874c-0.023,11.718-0.093,23.438-0.334,35.151
				c-0.273,13.391-4.893,17.986-18.458,18.699c-12.232,0.642-25.172-3.362-36.159,5.597c-0.645,0.526-2.457,0.519-3.117-0.006
				c-10.803-8.589-23.116-4.574-35.028-4.565c-15.006,0.011-20.124-5.772-20.071-20.745c0.121-34.319,0.038-68.64,0.038-103.884
				c5.048-0.513,10.213-1.035,16.154-1.638c-2.83-5.638-5.348-10.659-7.867-15.68l-0.213,0.159
				c16.266,2.692,2.522-9.833,5.495-12.786c4.511,2.387,8.202,4.496,12.094,6.135c0.341,0.144,3.067-3.899,2.845-4.119
				c-2.232-2.193-4.856-3.991-9.227-7.312c4.729-2.357,8.91-4.444,12.357-6.163c1.367,5.563,1.886,8.639,3.015,11.47
				c0.233,0.587,3.999,0.442,4.014,0.342c0.665-4.784,1.095-9.602,1.398-12.807c3.803,2.712,8.256,5.887,12.708,9.061
				c0-3.711,2.477-7.314,2.477-13.025c2.477,0.109,0.727-0.284,2.325-0.213c0.354,5.916,4.28,9.84,4.486,13.282
				c4.47-2.778,8.942-5.556,11.996-7.455c0.411,3.007,1.028,7.555,1.648,12.103c4.624-3.341,9.247-6.682,13.018-9.407
				c0,4.119,0,9.306,0,14.493c4.046-1.836,8.092-3.674,12.468-5.659c1.002,3.96-11.567,14.07,4.252,11.396L127.06,87.528z
				 M25.618,158.651c34.542,0,67.851,0,101.709,0c0-17.055,0-32.716,0-49.231c-32.142,0-63.225-0.15-94.299,0.283
				c-2.5,0.034-6.965,3.972-7.079,6.267C25.273,129.511,25.618,143.103,25.618,158.651z M36.71,98.118c28.678,0,53.943,0,81.678,0
				C107.28,82.961,94.119,78.076,78.676,78.365C63.135,78.657,49.466,83.369,36.71,98.118z M38.586,222.78
				c0-16.768,0.244-32.912-0.292-49.031c-0.07-2.175-4.479-6.21-6.17-5.87c-2.761,0.557-6.882,3.881-7.035,6.258
				c-0.798,12.344-0.829,24.766-0.499,37.145C24.779,218.386,28.981,222.337,38.586,222.78z M115.874,222.402
				c1.264,0.68,2.529,1.357,3.793,2.036c3.063-3.355,8.53-6.55,8.769-10.098c0.935-13.87,0.436-27.862-0.17-41.779
				c-0.075-1.706-4.039-4.531-6.162-4.495c-2.102,0.034-5.908,2.982-5.957,4.736C115.688,189.326,115.874,205.867,115.874,222.402z
				 M82.27,197.074c0-7.362,0.441-14.765-0.24-22.065c-0.235-2.53-3.252-4.805-4.999-7.193c-1.925,2.222-5.456,4.4-5.521,6.677
				c-0.424,15.1-0.367,30.229,0.23,45.321c0.103,2.544,3.592,4.954,5.517,7.426c1.683-2.691,4.55-5.271,4.816-8.097
				C82.765,211.843,82.304,204.437,82.27,197.074z M94.065,195.251c-0.096,0-0.19,0-0.287,0c0,6.975-0.397,13.986,0.229,20.905
				c0.205,2.276,3.065,4.31,4.713,6.453c1.866-1.846,5.31-3.66,5.351-5.547c0.321-14.716,0.149-29.45-0.361-44.165
				c-0.058-1.653-3.186-4.46-4.86-4.439c-1.613,0.021-4.437,2.925-4.563,4.717C93.762,180.501,94.065,187.886,94.065,195.251z
				 M48.895,221.127c1.136,0.753,2.271,1.509,3.409,2.265c2.438-2.248,6.865-4.395,6.985-6.759
				c0.728-14.424,0.692-28.901,0.299-43.346c-0.054-1.998-3.496-3.905-5.369-5.854c-1.774,1.973-5.035,3.903-5.089,5.921
				C48.706,189.27,48.895,205.201,48.895,221.127z"/>
			<path fill-rule="evenodd" clip-rule="evenodd" fill="#1D1D1B" d="M28.724,87.534c-3.882-5.213-8.785-9.963-11.406-15.748
				c-4.071-8.985,0.721-16.888,8.814-19.376c11.667-3.59,20.237-10.39,29.321-17.87c3.853-3.169,12.485-0.527,20.997-0.527
				c-1.225-4.313-2.592-9.138-4.441-15.658c0.518-0.581,3.25-3.645,5.879-6.595c2.415,2.733,5.116,5.793,6.263,7.09
				c-1.944,5.459-3.673,10.313-6.317,17.741c11.349-3.956,20.931-5.612,26.758,1.663c7.505,9.37,17.429,10.708,27.567,13.988
				c8.546,2.765,10.304,14.977,4.923,22.85c-2.995,4.382-6.657,8.307-10.021,12.437c-0.001,0-3.751-1.295-3.751-1.295
				c0.931-3.021,5.118-5.1,6.891-7.496c7.491-10.111,5.422-17.994-6.664-21.793c-4.355-1.368-9.164-1.3-14.027-1.921
				c-5.502-14.47-16.982-16.933-27.068-5.299c-4.998,5.765-7.314,1.825-10.731-2.143c-2.203-2.561-6.489-5.13-9.541-4.809
				c-7.945,0.835-15.335,3.673-14.258,14.304c-5.896,0-11.487-1.381-15.793,0.378c-4.587,1.875-9.378,6.109-11.287,10.521
				c-1.016,2.351,4.216,7.102,5.976,11.059c1.165,2.62,1.177,5.755,1.705,8.658L28.724,87.534z"/>
			<path fill-rule="evenodd" clip-rule="evenodd" fill="#1D1D1B" d="M119.315,102.967c0,0-47.928-5.171-82.725,0.246"/>
		</g>
		<g>
			<path fill-rule="evenodd" clip-rule="evenodd" fill="#FFCE00" d="M124.346,87.135c-2.374,4.735-4.751,9.473-7.704,15.358
				c4.653,0.576,8.995,1.112,14.191,1.753c0,23.098,0.033,46.307-0.015,69.514c-0.023,11.656-0.092,23.315-0.332,34.968
				c-0.272,13.32-4.867,17.893-18.363,18.602c-12.168,0.639-25.04-3.346-35.97,5.569c-0.643,0.522-2.445,0.515-3.103-0.007
				c-10.745-8.545-22.997-4.551-34.848-4.542c-14.927,0.011-20.019-5.743-19.967-20.638c0.122-34.141,0.039-68.282,0.039-103.344
				c5.021-0.51,10.16-1.03,16.07-1.63c-2.814-5.608-5.321-10.604-7.826-15.598l-0.212,0.157c16.18,2.68,2.509-9.78,5.466-12.72
				c4.487,2.375,8.161,4.474,12.031,6.104c0.34,0.143,3.054-3.88,2.831-4.097c-2.223-2.182-4.831-3.971-9.18-7.274
				c4.704-2.346,8.865-4.422,12.294-6.131c1.359,5.533,1.876,8.594,2.999,11.41c0.232,0.583,3.979,0.44,3.992,0.339
				c0.662-4.759,1.089-9.551,1.391-12.739c3.784,2.697,8.215,5.856,12.643,9.014c0-3.692,2.464-7.276,2.464-12.958
				c2.465,0.108,0.723-0.283,2.313-0.213c0.352,5.886,4.258,9.788,4.464,13.214c4.447-2.764,8.895-5.527,11.934-7.415
				c0.408,2.99,1.023,7.514,1.64,12.039c4.6-3.324,9.199-6.647,12.95-9.358c0,4.097,0,9.257,0,14.418
				c4.025-1.827,8.05-3.655,12.402-5.631c0.997,3.941-10.111,14.673,5.626,12.012L124.346,87.135z M23.429,157.889
				c34.364,0,67.5,0,101.184,0c0-16.967,0-32.546,0-48.976c-31.976,0-62.898-0.15-93.812,0.281
				c-2.486,0.033-6.928,3.951-7.042,6.233C23.087,128.9,23.429,142.422,23.429,157.889z M34.464,97.67c28.528,0,53.664,0,81.255,0
				c-11.05-15.079-24.143-19.939-39.506-19.65C60.752,78.31,47.155,82.998,34.464,97.67z M36.33,221.685
				c0-16.682,0.244-32.741-0.289-48.776c-0.072-2.163-4.456-6.179-6.139-5.841c-2.746,0.554-6.846,3.862-6.998,6.226
				c-0.795,12.28-0.825,24.638-0.497,36.951C22.595,217.314,26.775,221.246,36.33,221.685z M113.218,221.309
				c1.258,0.676,2.516,1.35,3.773,2.026c3.048-3.339,8.485-6.518,8.723-10.046c0.93-13.799,0.434-27.718-0.169-41.563
				c-0.074-1.697-4.018-4.507-6.13-4.472c-2.091,0.035-5.877,2.968-5.926,4.713C113.032,188.405,113.218,204.859,113.218,221.309z
				 M79.789,196.113c0-7.324,0.437-14.689-0.24-21.951c-0.234-2.519-3.234-4.779-4.973-7.157c-1.917,2.211-5.429,4.379-5.491,6.643
				c-0.423,15.021-0.367,30.072,0.229,45.086c0.1,2.531,3.572,4.929,5.486,7.388c1.675-2.678,4.527-5.244,4.793-8.056
				C80.279,210.805,79.823,203.438,79.789,196.113z M91.522,194.299c-0.095,0-0.189,0-0.285,0c0,6.938-0.396,13.914,0.227,20.798
				c0.204,2.263,3.05,4.286,4.688,6.419c1.856-1.837,5.282-3.642,5.323-5.519c0.32-14.639,0.148-29.298-0.359-43.935
				c-0.058-1.646-3.17-4.438-4.836-4.417c-1.604,0.021-4.412,2.91-4.54,4.691C91.221,179.626,91.522,186.973,91.522,194.299z
				 M46.585,220.041c1.132,0.75,2.262,1.503,3.393,2.253c2.424-2.235,6.83-4.372,6.948-6.724c0.724-14.348,0.689-28.752,0.297-43.12
				c-0.054-1.987-3.478-3.885-5.34-5.823c-1.767,1.962-5.01,3.883-5.063,5.89C46.398,188.349,46.585,204.197,46.585,220.041z"/>
			<path fill-rule="evenodd" clip-rule="evenodd" fill="#FFCE00" d="M26.52,87.141c-3.861-5.188-8.74-9.912-11.348-15.667
				c-4.05-8.938,0.719-16.8,8.77-19.276c11.606-3.569,20.131-10.335,29.17-17.776c3.83-3.152,12.419-0.524,20.886-0.524
				c-1.216-4.291-2.577-9.091-4.417-15.577c0.515-0.578,3.232-3.626,5.849-6.561c2.402,2.721,5.09,5.764,6.229,7.054
				c-1.934,5.431-3.653,10.26-6.284,17.648c11.291-3.936,20.823-5.582,26.619,1.654c7.467,9.322,17.339,10.652,27.425,13.916
				c8.502,2.751,10.251,14.899,4.897,22.731c-2.979,4.358-6.622,8.263-9.968,12.372c-0.001,0,0.221,0.176,0.221,0.176
				c0.927-3.005,1.139-6.538,2.902-8.921c7.452-10.061,5.394-17.902-6.63-21.681c-4.333-1.36-9.116-1.294-13.954-1.911
				c-5.474-14.395-16.895-16.844-26.928-5.271c-4.974,5.734-7.277,1.815-10.675-2.131c-2.193-2.548-6.458-5.104-9.492-4.783
				c-7.904,0.83-15.256,3.653-14.186,14.229c-5.863,0-11.426-1.374-15.71,0.377c-4.563,1.864-9.33,6.077-11.229,10.467
				c-1.01,2.337,4.194,7.064,5.946,11.001c1.159,2.606,1.17,5.724,1.695,8.612L26.52,87.141z"/>
			<path fill-rule="evenodd" clip-rule="evenodd" fill="#CF0A2C" d="M23.429,157.889c0-15.467-0.342-28.989,0.33-42.461
				c0.114-2.282,4.556-6.2,7.042-6.233c30.913-0.432,61.836-0.281,93.812-0.281c0,16.43,0,32.009,0,48.976
				C90.929,157.889,57.793,157.889,23.429,157.889z"/>
			<path fill-rule="evenodd" clip-rule="evenodd" fill="#CF0A2C" d="M26.308,87.298c-0.525-2.889-0.536-6.006-1.695-8.612
				c-1.752-3.937-6.956-8.664-5.946-11.001c1.899-4.39,6.666-8.603,11.229-10.467c4.284-1.751,9.847-0.377,15.71-0.377
				c-1.07-10.575,6.281-13.398,14.186-14.229c3.034-0.32,7.299,2.235,9.492,4.783c3.397,3.946,5.701,7.865,10.675,2.131
				c10.033-11.572,21.454-9.123,26.928,5.271c4.838,0.617,9.621,0.551,13.954,1.911c12.023,3.778,14.082,11.62,6.63,21.681
				c-1.764,2.383-1.976,5.916-2.902,8.921c-15.737,2.661-4.629-8.07-5.626-12.012c-4.353,1.976-8.377,3.804-12.402,5.631
				c0-5.161,0-10.321,0-14.418c-3.751,2.711-8.351,6.034-12.95,9.358c-0.616-4.525-1.231-9.049-1.64-12.039
				c-3.039,1.888-7.486,4.651-11.934,7.415c-0.206-3.426-4.112-7.328-4.464-13.214c-1.591-0.07,2.464,0.82,0,0.71
				c0,5.683-4.777,8.769-4.777,12.461c-4.428-3.157-8.858-6.316-12.643-9.014c-0.302,3.188-0.729,7.98-1.391,12.739
				c-0.013,0.102-3.76,0.244-3.992-0.339c-1.123-2.816-1.64-5.877-2.999-11.41c-3.429,1.709-7.59,3.785-12.294,6.131
				c4.349,3.304,6.957,5.093,9.18,7.274c0.223,0.217-2.491,4.239-2.831,4.097c-3.87-1.63-7.544-3.729-12.031-6.104
				C28.816,77.518,42.487,89.978,26.308,87.298z"/>
			<path fill-rule="evenodd" clip-rule="evenodd" fill="#CF0A2C" d="M32.795,100.466c13.306-18.69,27.562-24.662,43.771-25.032
				c16.106-0.367,29.833,5.824,41.42,25.032C87.533,96.724,64.744,96.724,32.795,100.466z"/>
			<path fill-rule="evenodd" clip-rule="evenodd" fill="#CF0A2C" d="M36.33,221.685c-9.555-0.439-13.735-4.371-13.923-11.44
				c-0.328-12.313-0.298-24.671,0.497-36.951c0.152-2.363,4.252-5.672,6.998-6.226c1.683-0.338,6.066,3.678,6.139,5.841
				C36.574,188.944,36.33,205.003,36.33,221.685z"/>
			<path fill-rule="evenodd" clip-rule="evenodd" fill="#CF0A2C" d="M113.218,221.309c0-16.45-0.186-32.904,0.271-49.342
				c0.049-1.745,3.835-4.678,5.926-4.713c2.112-0.035,6.056,2.774,6.13,4.472c0.603,13.846,1.099,27.765,0.169,41.563
				c-0.237,3.528-5.675,6.707-8.723,10.046C115.733,222.659,114.476,221.985,113.218,221.309z"/>
			<path fill-rule="evenodd" clip-rule="evenodd" fill="#CF0A2C" d="M79.805,196.113c0.019,7.325,0.475,14.692-0.212,21.952
				c-0.266,2.812-3.118,5.378-4.793,8.056c-1.914-2.459-5.387-4.856-5.486-7.388c-0.596-15.014-0.651-30.065-0.229-45.086
				c0.063-2.264,3.574-4.432,5.491-6.643c1.738,2.378,4.738,4.639,4.973,7.157C80.226,181.423,79.789,188.789,79.805,196.113z"/>
			<path fill-rule="evenodd" clip-rule="evenodd" fill="#CF0A2C" d="M91.522,194.299c0-7.326-0.302-14.673,0.218-21.962
				c0.128-1.781,2.936-4.671,4.54-4.691c1.666-0.021,4.778,2.771,4.836,4.417c0.508,14.637,0.68,29.296,0.359,43.935
				c-0.041,1.877-3.467,3.682-5.323,5.519c-1.639-2.133-4.484-4.156-4.688-6.419c-0.622-6.884-0.227-13.859-0.227-20.798
				C91.333,194.299,91.428,194.299,91.522,194.299z"/>
			<path fill-rule="evenodd" clip-rule="evenodd" fill="#CF0A2C" d="M46.585,220.041c0-15.844-0.187-31.691,0.235-47.524
				c0.053-2.007,3.296-3.928,5.063-5.89c1.862,1.938,5.286,3.836,5.34,5.823c0.393,14.368,0.427,28.772-0.297,43.12
				c-0.118,2.352-4.524,4.488-6.948,6.724C48.847,221.543,47.717,220.791,46.585,220.041z"/>
			<path fill-rule="evenodd" clip-rule="evenodd" fill="#FFFFFF" d="M53.697,113.877c6.981,0,14.711,3.296,21.986,3.296
				c7.59,0,14.737-3.296,22.442-3.296c-3.618,2.541-10.679,4.368-14.009,6.707c-3.281,2.305-1.339,5.207-4.528,7.447
				c15.839,1.276,16.424-6.882,23.188-13.41c0,4.723-4.664,13.482-4.664,18.183c0,4.768,5.542,13.87,5.542,18.569
				c-4.783-2.638-4.697-7.286-9.91-10.217c-3.631-2.041-10.141-0.749-14.19-2.982c-2.847,11.743,9.147,10.43,17.769,14.725
				c-6.847,0-14.433-2.412-21.639-2.412c-8.38,0-12.167,2.412-22.08,2.412c6.159-2.804,11.924-3.32,15.276-5.287
				c2.686-1.575,3.824-4.081,2.38-9.438c-4.232,2.151-10.669,1.657-14.189,3.938c-4.473,2.899-3.871,7.017-8.29,9.262
				c0-4.508,4.789-13.081,4.789-18.226c0-7.68-5.361-15.338-5.361-18.526c7.718,7.773,8.125,16.035,23.011,13.194
				c-3.601-2.704-1.721-4.303-4.197-6.348C64.268,119.195,57.192,116.5,53.697,113.877z"/>
			<path fill-rule="evenodd" clip-rule="evenodd" fill="#FFCE00" d="M69.982,53.079c1.818,0,3.832,1.159,5.728,1.159
				c1.976,0,3.839-1.159,5.846-1.159c-0.942,0.894-2.783,1.536-3.649,2.357c-0.855,0.812-0.348,1.832-1.179,2.62
				c4.124,0.448,4.277-2.422,6.039-4.716c0,1.66-1.214,4.741-1.214,6.394c0,1.677,1.442,4.877,1.442,6.53
				c-1.247-0.928-1.224-2.563-2.58-3.594c-0.947-0.717-2.644-0.263-3.697-1.048c-0.741,4.13-1.785,1.883-2.159,0
				c-1.104,0.756-2.78,0.583-3.697,1.384c-1.166,1.021-1.009,2.469-2.16,3.258c0-1.586,1.248-4.601,1.248-6.409
				c0-2.701-1.396-5.394-1.396-6.515c2.01,2.733,2.116,5.639,5.993,4.64c-0.937-0.952-0.447-1.513-1.093-2.232
				C72.736,54.949,70.893,54,69.982,53.079z"/>
			<path fill-rule="evenodd" clip-rule="evenodd" fill="#1D1D1B" d="M116.642,102.494c0,0-47.68-5.144-82.296,0.245"/>
		</g>
	</g>
	<g>
		<path fill="#1D1D1B" d="M148.217,99.7c-0.042-1.059-0.088-2.137-0.138-3.237c0.399,0.034,0.804,0.063,1.212,0.087
			c0.408,0.025,0.813,0.038,1.213,0.038c0.2,0,0.441-0.009,0.725-0.024c0.283-0.018,0.571-0.029,0.863-0.038
			c0.291-0.009,0.57-0.021,0.838-0.038c0.266-0.016,0.49-0.024,0.674-0.024c0.25,0,0.559,0.009,0.926,0.024
			c0.366,0.018,0.754,0.067,1.162,0.15c0.408,0.084,0.813,0.209,1.213,0.375c0.4,0.167,0.762,0.408,1.088,0.725
			c0.324,0.317,0.587,0.713,0.787,1.188c0.199,0.476,0.3,1.063,0.3,1.764c0,1.1-0.237,1.991-0.712,2.674
			c-0.476,0.684-1.059,1.217-1.75,1.601c-0.692,0.384-1.426,0.642-2.201,0.774c-0.774,0.135-1.462,0.201-2.063,0.201
			c-0.383,0-0.732-0.004-1.049-0.014c-0.317-0.008-0.643-0.028-0.976-0.063v1.375c0,1.101,0.021,2.184,0.063,3.25
			c0.042,1.067,0.087,2.117,0.138,3.15c-0.384-0.033-0.792-0.05-1.225-0.05c-0.434,0-0.842,0.017-1.226,0.05
			c0.05-1.033,0.096-2.083,0.138-3.15c0.041-1.066,0.063-2.149,0.063-3.25v-4.299C148.279,101.837,148.258,100.758,148.217,99.7z
			 M152.104,105.012c0.518,0,1.051-0.059,1.601-0.175s1.054-0.329,1.513-0.638c0.458-0.309,0.833-0.732,1.125-1.275
			c0.291-0.541,0.438-1.236,0.438-2.087c0-0.716-0.1-1.3-0.301-1.75c-0.199-0.45-0.479-0.8-0.837-1.05s-0.796-0.421-1.313-0.513
			c-0.517-0.091-1.101-0.138-1.75-0.138h-2.25v7.426C150.896,104.946,151.487,105.012,152.104,105.012z"/>
		<path fill="#1D1D1B" d="M161.629,101.813c0.633-0.201,1.283-0.301,1.95-0.301c0.601,0,1.15,0.088,1.651,0.263
			s0.93,0.425,1.283,0.75c0.355,0.325,0.634,0.717,0.836,1.175c0.203,0.459,0.305,0.963,0.305,1.513c0,0.95-0.018,1.896-0.051,2.837
			c-0.033,0.942-0.049,1.938-0.049,2.988c0,0.199,0.004,0.412,0.012,0.637c0.008,0.226,0.046,0.426,0.113,0.601
			c0.066,0.175,0.162,0.321,0.287,0.438s0.313,0.175,0.563,0.175c0.083,0,0.17-0.004,0.262-0.012
			c0.092-0.009,0.18-0.038,0.264-0.088v0.55c-0.184,0.083-0.413,0.149-0.688,0.2c-0.275,0.05-0.58,0.074-0.913,0.074
			c-0.542,0-0.956-0.137-1.243-0.412s-0.456-0.629-0.507-1.063c-0.599,0.6-1.188,1.042-1.769,1.325
			c-0.582,0.283-1.296,0.425-2.143,0.425c-0.416,0-0.822-0.059-1.221-0.175s-0.752-0.308-1.059-0.575
			c-0.309-0.266-0.557-0.588-0.748-0.963s-0.287-0.803-0.287-1.287c0-1,0.313-1.775,0.936-2.324
			c0.622-0.551,1.482-0.917,2.578-1.101c0.896-0.149,1.598-0.278,2.105-0.388c0.506-0.107,0.88-0.221,1.121-0.338
			c0.24-0.115,0.385-0.254,0.436-0.412c0.05-0.158,0.074-0.362,0.074-0.612c0-0.417-0.049-0.816-0.149-1.2
			c-0.101-0.383-0.259-0.717-0.476-1s-0.5-0.512-0.85-0.688c-0.35-0.175-0.775-0.262-1.275-0.262c-0.666,0-1.287,0.149-1.861,0.449
			c-0.576,0.301-1.005,0.717-1.288,1.25h-0.274v-1.3C160.305,102.396,160.996,102.012,161.629,101.813z M164.746,107.663
			c-0.373,0.066-0.75,0.137-1.132,0.213c-0.382,0.074-0.759,0.17-1.132,0.287s-0.705,0.275-0.996,0.475
			c-0.289,0.2-0.521,0.45-0.695,0.75c-0.175,0.301-0.262,0.684-0.262,1.15c0,0.783,0.224,1.375,0.672,1.775
			c0.447,0.399,0.945,0.6,1.492,0.6c0.631,0,1.207-0.176,1.729-0.525s0.925-0.758,1.206-1.225l0.1-3.75
			C165.447,107.512,165.119,107.596,164.746,107.663z"/>
		<path fill="#1D1D1B" d="M177.066,103.538c-0.242-0.084-0.487-0.125-0.737-0.125c-0.399,0-0.759,0.092-1.075,0.275
			s-0.584,0.429-0.8,0.736c-0.217,0.309-0.384,0.676-0.5,1.101s-0.175,0.88-0.175,1.362v2.75c0,1.117,0.004,1.971,0.012,2.563
			c0.009,0.592,0.038,1.071,0.088,1.438c-0.334-0.033-0.666-0.05-1-0.05c-0.367,0-0.717,0.017-1.05,0.05
			c0.05-0.566,0.079-1.338,0.087-2.313c0.009-0.975,0.014-2.17,0.014-3.588v-0.799c0-0.65-0.005-1.4-0.014-2.25
			c-0.008-0.851-0.037-1.826-0.087-2.926c0.183,0.033,0.358,0.063,0.524,0.088c0.167,0.025,0.342,0.037,0.525,0.037
			c0.15,0,0.309-0.012,0.475-0.037c0.167-0.025,0.342-0.055,0.525-0.088c-0.066,0.6-0.104,1.075-0.112,1.426
			c-0.009,0.35-0.013,0.684-0.013,1l0.051,0.024c0.982-1.8,2.082-2.7,3.299-2.7c0.15,0,0.279,0.009,0.389,0.025
			c0.107,0.017,0.245,0.059,0.412,0.125c-0.084,0.199-0.134,0.504-0.15,0.912s-0.025,0.779-0.025,1.113l-0.174,0.125
			C177.471,103.712,177.309,103.622,177.066,103.538z"/>
		<path fill="#1D1D1B" d="M185.392,103.538c-0.242-0.084-0.487-0.125-0.737-0.125c-0.4,0-0.759,0.092-1.075,0.275
			c-0.317,0.184-0.584,0.429-0.8,0.736c-0.217,0.309-0.384,0.676-0.5,1.101c-0.117,0.425-0.176,0.88-0.176,1.362v2.75
			c0,1.117,0.004,1.971,0.013,2.563s0.038,1.071,0.088,1.438c-0.334-0.033-0.667-0.05-1-0.05c-0.367,0-0.717,0.017-1.05,0.05
			c0.05-0.566,0.078-1.338,0.087-2.313s0.013-2.17,0.013-3.588v-0.799c0-0.65-0.004-1.4-0.013-2.25
			c-0.009-0.851-0.037-1.826-0.087-2.926c0.183,0.033,0.357,0.063,0.524,0.088s0.342,0.037,0.525,0.037
			c0.149,0,0.308-0.012,0.475-0.037s0.342-0.055,0.525-0.088c-0.067,0.6-0.104,1.075-0.112,1.426c-0.009,0.35-0.013,0.684-0.013,1
			l0.05,0.024c0.983-1.8,2.083-2.7,3.3-2.7c0.15,0,0.279,0.009,0.388,0.025s0.246,0.059,0.412,0.125
			c-0.083,0.199-0.133,0.504-0.149,0.912s-0.025,0.779-0.025,1.113l-0.175,0.125C185.795,103.712,185.633,103.622,185.392,103.538z"
			/>
		<path fill="#1D1D1B" d="M187.991,104.85c0.358-0.791,0.829-1.434,1.413-1.926c0.582-0.49,1.236-0.85,1.962-1.074
			s1.446-0.338,2.163-0.338c0.732,0,1.457,0.113,2.174,0.338s1.367,0.584,1.951,1.074c0.582,0.492,1.053,1.135,1.412,1.926
			c0.357,0.791,0.537,1.754,0.537,2.887c0,1.135-0.18,2.097-0.537,2.889c-0.359,0.791-0.83,1.434-1.412,1.924
			c-0.584,0.492-1.234,0.838-1.951,1.038s-1.441,0.3-2.174,0.3c-0.717,0-1.438-0.1-2.163-0.3s-1.38-0.546-1.962-1.038
			c-0.584-0.49-1.055-1.133-1.413-1.924c-0.358-0.792-0.538-1.754-0.538-2.889C187.453,106.604,187.633,105.641,187.991,104.85z
			 M189.842,109.762c0.125,0.65,0.337,1.229,0.637,1.738c0.301,0.508,0.7,0.912,1.2,1.212s1.116,0.45,1.851,0.45
			c0.732,0,1.35-0.15,1.85-0.45s0.9-0.704,1.199-1.212c0.301-0.509,0.514-1.088,0.639-1.738s0.188-1.324,0.188-2.025
			c0-0.699-0.063-1.375-0.188-2.024s-0.338-1.229-0.639-1.737c-0.299-0.508-0.699-0.912-1.199-1.213
			c-0.5-0.3-1.117-0.449-1.85-0.449c-0.734,0-1.351,0.149-1.851,0.449c-0.5,0.301-0.899,0.705-1.2,1.213
			c-0.3,0.508-0.512,1.088-0.637,1.737s-0.188,1.325-0.188,2.024C189.654,108.438,189.717,109.112,189.842,109.762z"/>
		<path fill="#1D1D1B" d="M212.766,114.875c0.009,0.658,0.021,1.313,0.038,1.962s0.037,1.271,0.063,1.862
			c0.024,0.592,0.054,1.096,0.087,1.513c-0.467-0.083-0.842-0.125-1.125-0.125s-0.658,0.042-1.125,0.125
			c0.033-0.417,0.063-0.921,0.088-1.513s0.046-1.213,0.063-1.862s0.029-1.304,0.037-1.962c0.009-0.659,0.013-1.255,0.013-1.788
			v-1.875h-0.05c-0.483,0.95-1.079,1.634-1.787,2.05c-0.709,0.416-1.472,0.625-2.288,0.625c-0.616,0-1.237-0.096-1.862-0.287
			s-1.188-0.525-1.688-1s-0.908-1.104-1.225-1.888c-0.317-0.783-0.476-1.75-0.476-2.899c0-1.101,0.158-2.047,0.476-2.838
			c0.316-0.791,0.725-1.441,1.225-1.95s1.063-0.888,1.688-1.138s1.246-0.375,1.862-0.375c1.134,0,2.025,0.259,2.675,0.775
			c0.65,0.517,1.117,1.158,1.4,1.925h0.05c0-0.399-0.017-0.8-0.05-1.2s-0.084-0.816-0.15-1.25c0.467,0.084,0.842,0.125,1.125,0.125
			s0.658-0.041,1.125-0.125c-0.033,0.434-0.063,0.95-0.087,1.551c-0.025,0.6-0.046,1.229-0.063,1.887s-0.029,1.321-0.038,1.988
			c-0.008,0.666-0.012,1.283-0.012,1.85v4.05C212.754,113.621,212.758,114.216,212.766,114.875z M210.703,105.65
			c-0.133-0.591-0.346-1.116-0.637-1.575c-0.292-0.458-0.663-0.824-1.113-1.1c-0.449-0.275-1-0.412-1.649-0.412
			c-0.4,0-0.813,0.078-1.237,0.236c-0.426,0.159-0.813,0.442-1.163,0.851c-0.35,0.409-0.634,0.962-0.85,1.663
			c-0.217,0.699-0.325,1.6-0.325,2.699c0,0.717,0.07,1.379,0.213,1.988c0.141,0.607,0.35,1.137,0.625,1.587
			c0.274,0.45,0.625,0.804,1.05,1.063s0.912,0.388,1.462,0.388c0.634,0,1.188-0.158,1.663-0.475c0.475-0.316,0.875-0.738,1.2-1.264
			c0.324-0.524,0.566-1.12,0.725-1.787c0.158-0.666,0.237-1.342,0.237-2.025C210.903,106.854,210.837,106.242,210.703,105.65z"/>
		<path fill="#1D1D1B" d="M216.316,107.6c0.024-0.625,0.038-1.246,0.038-1.863c0-0.582-0.005-1.216-0.014-1.899
			c-0.008-0.683-0.021-1.375-0.037-2.075c0.417,0.084,0.767,0.125,1.05,0.125c0.267,0,0.608-0.041,1.025-0.125
			c-0.084,1-0.146,2.096-0.188,3.287c-0.042,1.192-0.063,2.413-0.063,3.663c0,0.866,0.075,1.529,0.225,1.987
			c0.15,0.459,0.334,0.805,0.551,1.037c0.232,0.268,0.528,0.488,0.887,0.663s0.779,0.263,1.263,0.263c0.7,0,1.283-0.154,1.75-0.463
			s0.809-0.688,1.025-1.137c0.116-0.283,0.208-0.525,0.274-0.726s0.121-0.466,0.163-0.8c0.041-0.334,0.066-0.783,0.075-1.35
			c0.008-0.566,0.012-1.342,0.012-2.326v-2.1c0-0.366-0.004-0.717-0.012-1.05c-0.009-0.333-0.021-0.649-0.038-0.95
			c0.184,0.033,0.358,0.063,0.525,0.088c0.166,0.025,0.341,0.037,0.524,0.037s0.358-0.012,0.525-0.037
			c0.166-0.025,0.333-0.055,0.5-0.088c-0.084,1.301-0.134,2.555-0.15,3.763s-0.024,2.487-0.024,3.837
			c0,0.75,0.008,1.484,0.024,2.201s0.042,1.408,0.075,2.074c-0.333-0.033-0.658-0.05-0.975-0.05c-0.317,0-0.642,0.017-0.976,0.05
			c0.017-0.15,0.029-0.309,0.038-0.475c0.008-0.166,0.013-0.342,0.013-0.525v-1.074h-0.051c-0.434,0.799-0.991,1.387-1.675,1.762
			s-1.425,0.563-2.225,0.563c-1.3,0-2.321-0.346-3.063-1.037c-0.742-0.691-1.113-1.688-1.113-2.988
			C216.278,108.979,216.292,108.225,216.316,107.6z"/>
		<path fill="#1D1D1B" d="M230.854,96.512c0.25-0.25,0.55-0.375,0.899-0.375c0.351,0,0.65,0.125,0.9,0.375s0.375,0.551,0.375,0.9
			s-0.125,0.65-0.375,0.9s-0.55,0.375-0.9,0.375c-0.35,0-0.649-0.125-0.899-0.375s-0.375-0.551-0.375-0.9
			S230.604,96.762,230.854,96.512z M230.792,104.075c-0.025-0.824-0.079-1.596-0.163-2.313c0.467,0.084,0.842,0.125,1.125,0.125
			s0.658-0.041,1.125-0.125c-0.083,0.717-0.137,1.488-0.162,2.313c-0.025,0.825-0.037,1.613-0.037,2.363v2.6
			c0,0.75,0.012,1.537,0.037,2.362s0.079,1.571,0.162,2.237c-0.383-0.033-0.758-0.05-1.125-0.05c-0.366,0-0.741,0.017-1.125,0.05
			c0.084-0.666,0.138-1.412,0.163-2.237c0.024-0.825,0.037-1.612,0.037-2.362v-2.6C230.829,105.688,230.816,104.9,230.792,104.075z"
			/>
		<path fill="#1D1D1B" d="M239.43,101.813c0.633-0.201,1.283-0.301,1.95-0.301c0.6,0,1.15,0.088,1.651,0.263s0.929,0.425,1.283,0.75
			s0.634,0.717,0.836,1.175c0.202,0.459,0.304,0.963,0.304,1.513c0,0.95-0.017,1.896-0.05,2.837c-0.033,0.942-0.05,1.938-0.05,2.988
			c0,0.199,0.004,0.412,0.013,0.637c0.008,0.226,0.046,0.426,0.112,0.601s0.162,0.321,0.287,0.438s0.313,0.175,0.563,0.175
			c0.084,0,0.171-0.004,0.263-0.012c0.092-0.009,0.179-0.038,0.263-0.088v0.55c-0.184,0.083-0.412,0.149-0.688,0.2
			c-0.275,0.05-0.579,0.074-0.912,0.074c-0.542,0-0.956-0.137-1.243-0.412c-0.288-0.275-0.456-0.629-0.507-1.063
			c-0.599,0.6-1.188,1.042-1.77,1.325s-1.295,0.425-2.143,0.425c-0.415,0-0.822-0.059-1.221-0.175s-0.752-0.308-1.059-0.575
			c-0.308-0.266-0.557-0.588-0.748-0.963c-0.19-0.375-0.286-0.803-0.286-1.287c0-1,0.312-1.775,0.935-2.324
			c0.623-0.551,1.482-0.917,2.578-1.101c0.897-0.149,1.599-0.278,2.105-0.388c0.507-0.107,0.881-0.221,1.121-0.338
			c0.24-0.115,0.386-0.254,0.436-0.412c0.051-0.158,0.075-0.362,0.075-0.612c0-0.417-0.05-0.816-0.149-1.2
			c-0.101-0.383-0.259-0.717-0.476-1s-0.5-0.512-0.85-0.688c-0.351-0.175-0.775-0.262-1.275-0.262c-0.667,0-1.287,0.149-1.862,0.449
			c-0.575,0.301-1.004,0.717-1.287,1.25h-0.275v-1.3C238.104,102.396,238.796,102.012,239.43,101.813z M242.547,107.663
			c-0.374,0.066-0.751,0.137-1.132,0.213c-0.382,0.074-0.76,0.17-1.133,0.287s-0.705,0.275-0.995,0.475
			c-0.29,0.2-0.522,0.45-0.696,0.75c-0.174,0.301-0.262,0.684-0.262,1.15c0,0.783,0.225,1.375,0.672,1.775
			c0.447,0.399,0.945,0.6,1.493,0.6c0.63,0,1.206-0.176,1.729-0.525c0.521-0.35,0.924-0.758,1.206-1.225l0.1-3.75
			C243.247,107.512,242.92,107.596,242.547,107.663z"/>
		<path fill="#1D1D1B" d="M158.309,135.862c-2.6-2.789-5.199-5.564-7.799-8.324c-0.021,0.561-0.041,1.311-0.061,2.25
			c-0.021,0.939-0.03,2.22-0.03,3.84c0,0.42,0.005,0.94,0.015,1.561c0.01,0.619,0.02,1.27,0.03,1.949s0.024,1.37,0.046,2.07
			c0.02,0.7,0.039,1.35,0.06,1.949c0.02,0.601,0.04,1.125,0.06,1.576c0.02,0.449,0.04,0.755,0.061,0.914
			c-0.32-0.04-0.671-0.06-1.051-0.06c-0.4,0-0.77,0.02-1.109,0.06c0.039-0.199,0.084-0.569,0.135-1.109
			c0.05-0.54,0.095-1.186,0.135-1.936s0.085-1.564,0.135-2.445c0.051-0.879,0.09-1.759,0.121-2.639
			c0.029-0.881,0.055-1.74,0.074-2.58c0.02-0.841,0.03-1.591,0.03-2.25c0-1.92-0.005-3.57-0.015-4.951
			c-0.011-1.379-0.035-2.409-0.075-3.09h0.479c1.22,1.32,2.525,2.735,3.915,4.246c1.39,1.51,2.771,3,4.14,4.469
			c1.37,1.471,2.67,2.861,3.9,4.17c1.23,1.311,2.305,2.426,3.225,3.346v-4.08c0-2.1-0.015-4.145-0.045-6.135
			c-0.029-1.99-0.095-3.865-0.194-5.625c0.399,0.1,0.739,0.15,1.021,0.15c0.239,0,0.559-0.051,0.959-0.15
			c-0.04,0.439-0.085,1.1-0.135,1.98c-0.05,0.88-0.1,1.819-0.15,2.819c-0.05,1.001-0.095,1.979-0.135,2.94
			c-0.04,0.959-0.06,1.729-0.06,2.31c0,0.5,0,1.101,0,1.8c0,0.68,0.005,1.391,0.015,2.131c0.01,0.739,0.02,1.484,0.03,2.234
			c0.01,0.75,0.02,1.45,0.03,2.1c0.01,0.65,0.015,1.215,0.015,1.695c0,0.44,0,0.77,0,0.99h-0.42
			C163.359,141.377,160.908,138.653,158.309,135.862z"/>
		<path fill="#1D1D1B" d="M171.494,136.403c0.029-0.75,0.045-1.495,0.045-2.235c0-0.7-0.006-1.46-0.016-2.28s-0.025-1.65-0.045-2.49
			c0.5,0.101,0.92,0.15,1.26,0.15c0.32,0,0.73-0.05,1.23-0.15c-0.1,1.2-0.176,2.516-0.225,3.945
			c-0.051,1.43-0.075,2.895-0.075,4.395c0,1.041,0.09,1.836,0.271,2.386c0.18,0.55,0.399,0.965,0.66,1.245
			c0.279,0.32,0.634,0.585,1.064,0.795c0.43,0.21,0.935,0.314,1.515,0.314c0.841,0,1.54-0.185,2.101-0.555
			c0.56-0.369,0.97-0.825,1.229-1.365c0.14-0.34,0.25-0.63,0.33-0.869c0.079-0.24,0.146-0.561,0.195-0.961
			c0.05-0.399,0.079-0.939,0.09-1.619c0.01-0.68,0.015-1.61,0.015-2.791v-2.52c0-0.439-0.005-0.859-0.015-1.26
			c-0.011-0.4-0.025-0.78-0.045-1.141c0.22,0.041,0.43,0.075,0.63,0.105c0.199,0.029,0.41,0.045,0.63,0.045s0.43-0.016,0.63-0.045
			c0.199-0.03,0.4-0.064,0.6-0.105c-0.1,1.561-0.16,3.065-0.18,4.516s-0.029,2.984-0.029,4.605c0,0.899,0.01,1.779,0.029,2.639
			c0.02,0.861,0.05,1.691,0.09,2.49c-0.4-0.04-0.79-0.06-1.17-0.06s-0.77,0.02-1.17,0.06c0.02-0.18,0.035-0.369,0.045-0.569
			s0.016-0.41,0.016-0.63v-1.291h-0.061c-0.52,0.961-1.189,1.666-2.01,2.115c-0.82,0.45-1.71,0.676-2.67,0.676
			c-1.561,0-2.785-0.415-3.675-1.245c-0.891-0.83-1.335-2.025-1.335-3.585C171.449,138.057,171.464,137.153,171.494,136.403z"/>
		<path fill="#1D1D1B" d="M188.654,131.198c1.17-1.4,2.875-2.101,5.115-2.101c1.06,0,1.975,0.165,2.744,0.495
			s1.415,0.771,1.936,1.32c0.52,0.551,0.904,1.195,1.154,1.935c0.25,0.74,0.375,1.53,0.375,2.37c0,0.2-0.004,0.396-0.014,0.585
			c-0.012,0.19-0.025,0.386-0.046,0.585c-1.079-0.02-2.149-0.039-3.21-0.06s-2.13-0.03-3.21-0.03c-0.659,0-1.315,0.01-1.965,0.03
			c-0.65,0.021-1.306,0.04-1.965,0.06c-0.021,0.101-0.03,0.25-0.03,0.45v0.39c0,0.78,0.115,1.511,0.346,2.19
			c0.229,0.681,0.564,1.265,1.004,1.755s0.98,0.881,1.621,1.17c0.639,0.29,1.379,0.436,2.219,0.436c0.4,0,0.811-0.055,1.23-0.166
			c0.42-0.109,0.83-0.26,1.23-0.449c0.399-0.189,0.774-0.415,1.125-0.676c0.35-0.26,0.654-0.539,0.914-0.84l0.15,0.09l-0.18,1.471
			c-0.6,0.48-1.346,0.891-2.234,1.23c-0.891,0.34-1.816,0.51-2.775,0.51c-1.08,0-2.065-0.166-2.955-0.495
			c-0.891-0.33-1.66-0.81-2.311-1.44c-0.65-0.63-1.15-1.375-1.5-2.234c-0.35-0.86-0.525-1.79-0.525-2.791
			C186.898,134.528,187.484,132.598,188.654,131.198z M191.954,130.567c-0.51,0.341-0.931,0.766-1.26,1.275
			c-0.33,0.51-0.581,1.07-0.75,1.68c-0.171,0.611-0.275,1.186-0.315,1.726c0.62,0.021,1.266,0.04,1.936,0.06
			c0.67,0.021,1.324,0.03,1.965,0.03c0.66,0,1.33-0.01,2.01-0.03c0.68-0.02,1.34-0.039,1.98-0.06c0-0.54-0.045-1.11-0.135-1.71
			c-0.091-0.6-0.271-1.16-0.541-1.68c-0.27-0.521-0.645-0.95-1.125-1.291c-0.479-0.34-1.109-0.51-1.89-0.51
			C193.089,130.057,192.465,130.227,191.954,130.567z"/>
		<path fill="#1D1D1B" d="M203.444,141.518c0.21,0.239,0.46,0.465,0.75,0.674c0.29,0.211,0.62,0.386,0.989,0.525
			c0.371,0.141,0.766,0.21,1.186,0.21c0.38,0,0.744-0.06,1.096-0.18c0.35-0.12,0.659-0.29,0.93-0.511
			c0.27-0.219,0.484-0.499,0.645-0.84c0.16-0.34,0.24-0.729,0.24-1.17c0-0.619-0.176-1.095-0.525-1.425s-0.785-0.6-1.305-0.81
			c-0.521-0.211-1.09-0.395-1.71-0.555s-1.19-0.385-1.71-0.676c-0.521-0.289-0.955-0.675-1.305-1.154
			c-0.351-0.48-0.525-1.141-0.525-1.98c0-0.66,0.109-1.265,0.33-1.814c0.22-0.551,0.54-1.025,0.96-1.426
			c0.42-0.399,0.94-0.715,1.56-0.945c0.62-0.229,1.33-0.345,2.131-0.345c0.739,0,1.364,0.101,1.875,0.3
			c0.51,0.201,0.994,0.381,1.455,0.541c-0.161,0.299-0.311,0.67-0.451,1.109c-0.14,0.44-0.229,0.78-0.27,1.02h-0.359
			c-0.16-0.479-0.471-0.909-0.931-1.289s-1.03-0.57-1.71-0.57c-0.3,0-0.6,0.05-0.9,0.15c-0.299,0.1-0.569,0.25-0.81,0.449
			c-0.239,0.2-0.44,0.461-0.601,0.78c-0.16,0.32-0.239,0.7-0.239,1.14c0,0.641,0.175,1.136,0.524,1.485
			c0.35,0.351,0.785,0.626,1.306,0.825c0.52,0.2,1.09,0.375,1.71,0.525c0.619,0.149,1.189,0.359,1.71,0.629
			c0.52,0.271,0.954,0.646,1.305,1.125c0.351,0.48,0.525,1.141,0.525,1.98c0,0.58-0.126,1.15-0.375,1.71
			c-0.251,0.56-0.61,1.065-1.08,1.515c-0.47,0.45-1.035,0.801-1.695,1.051c-0.659,0.25-1.409,0.375-2.25,0.375
			c-0.92,0-1.69-0.09-2.31-0.271c-0.621-0.18-1.141-0.39-1.561-0.63c0.12-0.26,0.245-0.615,0.375-1.064
			c0.131-0.451,0.195-0.826,0.195-1.125h0.359C203.079,141.057,203.234,141.278,203.444,141.518z"/>
		<path fill="#1D1D1B" d="M217.528,125.377c-0.059,0.76-0.104,1.505-0.135,2.234c-0.029,0.73-0.064,1.466-0.105,2.205
			c0.221,0,0.631-0.004,1.23-0.015c0.6-0.01,1.25-0.034,1.951-0.075c-0.021,0.061-0.031,0.17-0.031,0.33v0.301v0.33
			c0,0.14,0.01,0.239,0.031,0.299c-0.262-0.02-0.531-0.034-0.811-0.045c-0.281-0.01-0.58-0.015-0.9-0.015h-1.471
			c-0.02,0.08-0.045,0.4-0.074,0.96c-0.029,0.561-0.055,1.226-0.074,1.995c-0.021,0.771-0.035,1.575-0.045,2.415
			c-0.012,0.84-0.016,1.59-0.016,2.25c0,0.561,0.016,1.109,0.045,1.65c0.029,0.539,0.125,1.025,0.285,1.455s0.4,0.775,0.721,1.035
			c0.318,0.26,0.779,0.39,1.379,0.39c0.16,0,0.375-0.021,0.645-0.06c0.271-0.041,0.506-0.091,0.705-0.15v0.72
			c-0.34,0.06-0.715,0.135-1.125,0.226c-0.41,0.09-0.805,0.135-1.184,0.135c-1.262,0-2.191-0.311-2.79-0.93
			c-0.601-0.62-0.9-1.531-0.9-2.73c0-0.54,0.01-1.125,0.029-1.756c0.02-0.629,0.045-1.319,0.075-2.069s0.056-1.579,0.075-2.49
			c0.02-0.909,0.029-1.925,0.029-3.045h-0.959c-0.16,0-0.33,0.005-0.51,0.015c-0.181,0.011-0.371,0.025-0.57,0.045
			c0.02-0.119,0.035-0.234,0.045-0.344c0.01-0.11,0.015-0.226,0.015-0.346c0-0.1-0.005-0.199-0.015-0.3s-0.025-0.2-0.045-0.3
			c0.9,0.06,1.56,0.09,1.98,0.09c-0.021-0.4-0.035-0.9-0.046-1.5s-0.035-1.22-0.075-1.86l2.491-1.05H217.528z"/>
		<path fill="#1D1D1B" d="M229.425,131.528c-0.291-0.1-0.585-0.15-0.886-0.15c-0.479,0-0.91,0.11-1.29,0.33
			c-0.38,0.221-0.7,0.516-0.96,0.885c-0.26,0.371-0.46,0.811-0.6,1.32c-0.141,0.51-0.21,1.055-0.21,1.635v3.3
			c0,1.341,0.005,2.366,0.015,3.075c0.01,0.71,0.045,1.285,0.105,1.725c-0.4-0.04-0.801-0.06-1.2-0.06c-0.44,0-0.86,0.02-1.26,0.06
			c0.06-0.68,0.095-1.604,0.104-2.774s0.016-2.604,0.016-4.306v-0.959c0-0.78-0.006-1.681-0.016-2.701
			c-0.01-1.02-0.045-2.189-0.104-3.51c0.22,0.041,0.43,0.075,0.63,0.105c0.199,0.029,0.409,0.045,0.63,0.045
			c0.18,0,0.37-0.016,0.57-0.045c0.199-0.03,0.409-0.064,0.63-0.105c-0.08,0.721-0.125,1.291-0.135,1.711
			c-0.011,0.42-0.016,0.82-0.016,1.199l0.061,0.03c1.18-2.16,2.499-3.24,3.96-3.24c0.18,0,0.334,0.011,0.465,0.03
			c0.13,0.02,0.295,0.07,0.495,0.15c-0.101,0.24-0.16,0.604-0.181,1.095c-0.02,0.49-0.029,0.935-0.029,1.335l-0.21,0.15
			C229.909,131.737,229.714,131.627,229.425,131.528z"/>
		<path fill="#1D1D1B" d="M235.53,129.458c0.76-0.24,1.54-0.36,2.34-0.36c0.72,0,1.381,0.105,1.982,0.315
			c0.601,0.21,1.114,0.51,1.54,0.9c0.426,0.39,0.76,0.859,1.003,1.409c0.243,0.551,0.364,1.155,0.364,1.815
			c0,1.14-0.02,2.275-0.06,3.404c-0.04,1.131-0.06,2.326-0.06,3.586c0,0.24,0.004,0.494,0.015,0.765
			c0.01,0.271,0.055,0.51,0.135,0.72s0.195,0.386,0.345,0.525c0.15,0.141,0.375,0.21,0.676,0.21c0.1,0,0.204-0.005,0.314-0.015
			s0.215-0.045,0.315-0.105v0.66c-0.221,0.1-0.495,0.18-0.825,0.24c-0.33,0.06-0.695,0.09-1.095,0.09
			c-0.65,0-1.146-0.165-1.492-0.495c-0.345-0.33-0.547-0.755-0.608-1.275c-0.718,0.72-1.425,1.251-2.123,1.591
			c-0.697,0.34-1.554,0.51-2.57,0.51c-0.499,0-0.987-0.07-1.465-0.211c-0.479-0.14-0.902-0.369-1.271-0.689
			c-0.369-0.32-0.668-0.705-0.897-1.154c-0.229-0.451-0.344-0.965-0.344-1.546c0-1.2,0.374-2.13,1.121-2.79
			c0.748-0.66,1.779-1.1,3.095-1.32c1.076-0.18,1.918-0.334,2.526-0.465c0.607-0.129,1.057-0.265,1.345-0.404
			c0.289-0.141,0.463-0.305,0.523-0.495c0.06-0.19,0.09-0.435,0.09-0.735c0-0.5-0.06-0.979-0.18-1.439s-0.311-0.859-0.57-1.2
			c-0.26-0.34-0.6-0.615-1.02-0.825c-0.421-0.21-0.931-0.314-1.53-0.314c-0.801,0-1.545,0.18-2.235,0.539
			c-0.689,0.36-1.205,0.86-1.545,1.5h-0.33v-1.56C233.94,130.158,234.77,129.698,235.53,129.458z M239.271,136.477
			c-0.448,0.08-0.9,0.166-1.358,0.256s-0.91,0.205-1.358,0.345s-0.846,0.329-1.194,0.569c-0.348,0.24-0.627,0.541-0.836,0.9
			s-0.313,0.82-0.313,1.38c0,0.94,0.269,1.65,0.806,2.13c0.537,0.48,1.135,0.721,1.792,0.721c0.757,0,1.448-0.211,2.075-0.631
			s1.109-0.909,1.448-1.47l0.119-4.5C240.111,136.297,239.719,136.398,239.271,136.477z"/>
		<path fill="#1D1D1B" d="M256.755,140.842c0.271,0.371,0.601,0.705,0.99,1.005s0.845,0.546,1.365,0.735
			c0.52,0.19,1.1,0.285,1.739,0.285c0.66,0,1.255-0.115,1.785-0.346c0.53-0.229,0.98-0.539,1.351-0.93
			c0.369-0.39,0.654-0.85,0.854-1.38s0.3-1.095,0.3-1.694c0-0.92-0.235-1.65-0.704-2.19c-0.471-0.54-1.056-0.99-1.756-1.351
			c-0.7-0.359-1.455-0.689-2.265-0.99c-0.81-0.299-1.565-0.674-2.265-1.125c-0.7-0.449-1.285-1.023-1.755-1.725
			c-0.471-0.699-0.705-1.64-0.705-2.82c0-0.84,0.149-1.604,0.449-2.295c0.301-0.689,0.735-1.284,1.306-1.785
			c0.569-0.499,1.255-0.889,2.055-1.17c0.8-0.279,1.7-0.42,2.7-0.42c0.96,0,1.79,0.115,2.49,0.346
			c0.699,0.23,1.35,0.585,1.949,1.064c-0.18,0.341-0.329,0.701-0.449,1.08c-0.12,0.381-0.24,0.86-0.36,1.44h-0.36
			c-0.1-0.28-0.235-0.585-0.404-0.915c-0.171-0.33-0.4-0.635-0.69-0.915s-0.635-0.515-1.035-0.705s-0.88-0.285-1.439-0.285
			c-0.561,0-1.075,0.09-1.545,0.271c-0.471,0.18-0.881,0.435-1.23,0.765s-0.62,0.726-0.81,1.185c-0.19,0.461-0.285,0.961-0.285,1.5
			c0,0.94,0.234,1.68,0.705,2.221c0.47,0.539,1.055,0.994,1.755,1.365c0.699,0.369,1.455,0.699,2.265,0.989
			c0.811,0.29,1.564,0.646,2.266,1.065c0.699,0.42,1.284,0.96,1.755,1.619c0.47,0.66,0.705,1.541,0.705,2.641
			c0,0.92-0.165,1.79-0.495,2.609c-0.33,0.82-0.811,1.535-1.44,2.146s-1.4,1.08-2.31,1.41c-0.91,0.33-1.945,0.495-3.105,0.495
			c-1.24,0-2.245-0.165-3.015-0.495c-0.771-0.33-1.415-0.705-1.936-1.125c0.181-0.46,0.305-0.875,0.375-1.245
			c0.07-0.369,0.136-0.845,0.195-1.425h0.36C256.27,140.108,256.485,140.473,256.755,140.842z"/>
		<path fill="#1D1D1B" d="M271.635,131.198c1.17-1.4,2.875-2.101,5.115-2.101c1.06,0,1.975,0.165,2.745,0.495
			c0.77,0.33,1.415,0.771,1.935,1.32c0.521,0.551,0.905,1.195,1.155,1.935c0.25,0.74,0.375,1.53,0.375,2.37
			c0,0.2-0.005,0.396-0.015,0.585c-0.011,0.19-0.025,0.386-0.045,0.585c-1.08-0.02-2.15-0.039-3.21-0.06
			c-1.061-0.021-2.13-0.03-3.21-0.03c-0.66,0-1.315,0.01-1.966,0.03c-0.649,0.021-1.305,0.04-1.965,0.06
			c-0.02,0.101-0.029,0.25-0.029,0.45v0.39c0,0.78,0.114,1.511,0.345,2.19c0.229,0.681,0.564,1.265,1.005,1.755
			c0.439,0.49,0.979,0.881,1.62,1.17c0.64,0.29,1.38,0.436,2.22,0.436c0.4,0,0.811-0.055,1.23-0.166
			c0.42-0.109,0.829-0.26,1.229-0.449s0.775-0.415,1.125-0.676c0.35-0.26,0.655-0.539,0.915-0.84l0.15,0.09l-0.181,1.471
			c-0.6,0.48-1.345,0.891-2.234,1.23c-0.891,0.34-1.815,0.51-2.775,0.51c-1.08,0-2.065-0.166-2.955-0.495
			c-0.89-0.33-1.66-0.81-2.31-1.44c-0.65-0.63-1.15-1.375-1.5-2.234c-0.351-0.86-0.525-1.79-0.525-2.791
			C269.88,134.528,270.465,132.598,271.635,131.198z M274.936,130.567c-0.511,0.341-0.931,0.766-1.261,1.275s-0.58,1.07-0.75,1.68
			c-0.17,0.611-0.274,1.186-0.314,1.726c0.619,0.021,1.265,0.04,1.935,0.06c0.67,0.021,1.325,0.03,1.965,0.03
			c0.66,0,1.33-0.01,2.011-0.03c0.68-0.02,1.339-0.039,1.979-0.06c0-0.54-0.045-1.11-0.135-1.71s-0.271-1.16-0.54-1.68
			c-0.271-0.521-0.646-0.95-1.125-1.291c-0.48-0.34-1.11-0.51-1.89-0.51C276.07,130.057,275.445,130.227,274.936,130.567z"/>
		<path fill="#1D1D1B" d="M295.021,131.813c-0.581-0.771-1.381-1.156-2.4-1.156c-1.4,0-2.426,0.432-3.075,1.291
			c-0.65,0.859-0.975,2.07-0.975,3.63v2.55c0,0.9,0.015,1.845,0.045,2.835s0.095,1.886,0.195,2.685
			c-0.461-0.04-0.911-0.06-1.351-0.06c-0.44,0-0.89,0.02-1.35,0.06c0.1-0.799,0.165-1.694,0.194-2.685
			c0.03-0.99,0.045-1.935,0.045-2.835v-3.12c0-0.899-0.015-1.845-0.045-2.835c-0.029-0.99-0.095-1.915-0.194-2.775
			c0.56,0.101,1.01,0.15,1.35,0.15c0.16,0,0.335-0.016,0.525-0.045c0.189-0.03,0.415-0.064,0.675-0.105
			c-0.061,0.801-0.09,1.601-0.09,2.4h0.06c0.562-0.859,1.234-1.525,2.017-1.995s1.715-0.705,2.799-0.705
			c0.562,0,1.128,0.081,1.7,0.24c0.571,0.16,1.088,0.435,1.55,0.825c0.461,0.39,0.837,0.92,1.128,1.59s0.437,1.525,0.437,2.564
			c0,0.861-0.02,1.746-0.06,2.655c-0.04,0.911-0.061,1.875-0.061,2.896v1.949c0,0.32,0.005,0.636,0.016,0.945
			c0.01,0.311,0.024,0.605,0.045,0.885c-0.405-0.04-0.83-0.06-1.275-0.06c-0.426,0-0.84,0.02-1.245,0.06
			c0.04-1.039,0.085-2.109,0.136-3.209c0.05-1.1,0.074-2.23,0.074-3.391v-1.83C295.89,133.717,295.6,132.583,295.021,131.813z
			 M287.565,124.987c0.149-0.359,0.354-0.689,0.614-0.989s0.57-0.545,0.931-0.735c0.359-0.189,0.779-0.285,1.26-0.285
			c0.34,0,0.649,0.051,0.93,0.15s0.7,0.28,1.261,0.54c0.56,0.28,0.964,0.465,1.215,0.555c0.25,0.091,0.505,0.136,0.765,0.136
			c0.46,0,0.83-0.15,1.11-0.451c0.279-0.299,0.479-0.648,0.6-1.049h0.87c-0.04,0.239-0.12,0.539-0.24,0.899
			s-0.305,0.716-0.555,1.065s-0.575,0.645-0.976,0.885c-0.399,0.24-0.899,0.359-1.5,0.359c-0.28,0-0.595-0.049-0.944-0.149
			c-0.351-0.101-0.755-0.28-1.215-0.54c-0.521-0.279-0.915-0.465-1.186-0.555c-0.27-0.09-0.524-0.135-0.765-0.135
			c-0.461,0-0.795,0.1-1.005,0.299c-0.21,0.201-0.405,0.561-0.585,1.08h-0.9C287.311,125.708,287.415,125.347,287.565,124.987z"/>
		<path fill="#1D1D1B" d="M302.205,133.102c0.43-0.949,0.994-1.72,1.694-2.31s1.485-1.021,2.355-1.29s1.734-0.405,2.595-0.405
			c0.88,0,1.75,0.136,2.61,0.405c0.859,0.27,1.64,0.7,2.34,1.29s1.265,1.36,1.695,2.31c0.43,0.951,0.645,2.105,0.645,3.465
			c0,1.361-0.215,2.516-0.645,3.465c-0.431,0.951-0.995,1.721-1.695,2.311s-1.48,1.005-2.34,1.245c-0.86,0.24-1.73,0.36-2.61,0.36
			c-0.86,0-1.725-0.12-2.595-0.36s-1.655-0.655-2.355-1.245s-1.265-1.359-1.694-2.311c-0.431-0.949-0.646-2.104-0.646-3.465
			C301.56,135.208,301.774,134.053,302.205,133.102z M304.425,138.998c0.15,0.78,0.405,1.476,0.765,2.085
			c0.36,0.61,0.84,1.095,1.44,1.455c0.6,0.359,1.34,0.54,2.22,0.54s1.62-0.181,2.22-0.54c0.601-0.36,1.08-0.845,1.44-1.455
			c0.36-0.609,0.615-1.305,0.765-2.085c0.15-0.78,0.226-1.591,0.226-2.431s-0.075-1.649-0.226-2.43
			c-0.149-0.779-0.404-1.475-0.765-2.085s-0.84-1.095-1.44-1.455c-0.6-0.36-1.34-0.54-2.22-0.54s-1.62,0.18-2.22,0.54
			c-0.601,0.36-1.08,0.845-1.44,1.455c-0.359,0.61-0.614,1.306-0.765,2.085c-0.15,0.78-0.225,1.59-0.225,2.43
			S304.274,138.217,304.425,138.998z"/>
		<path fill="#1D1D1B" d="M325.755,131.528c-0.291-0.1-0.585-0.15-0.886-0.15c-0.479,0-0.91,0.11-1.29,0.33
			c-0.38,0.221-0.7,0.516-0.96,0.885c-0.26,0.371-0.46,0.811-0.6,1.32c-0.141,0.51-0.21,1.055-0.21,1.635v3.3
			c0,1.341,0.005,2.366,0.015,3.075c0.01,0.71,0.045,1.285,0.105,1.725c-0.4-0.04-0.801-0.06-1.2-0.06c-0.44,0-0.86,0.02-1.26,0.06
			c0.06-0.68,0.095-1.604,0.104-2.774s0.016-2.604,0.016-4.306v-0.959c0-0.78-0.006-1.681-0.016-2.701
			c-0.01-1.02-0.045-2.189-0.104-3.51c0.22,0.041,0.43,0.075,0.63,0.105c0.199,0.029,0.409,0.045,0.63,0.045
			c0.18,0,0.37-0.016,0.57-0.045c0.199-0.03,0.409-0.064,0.63-0.105c-0.08,0.721-0.125,1.291-0.135,1.711
			c-0.011,0.42-0.016,0.82-0.016,1.199l0.061,0.03c1.18-2.16,2.499-3.24,3.96-3.24c0.18,0,0.334,0.011,0.465,0.03
			c0.13,0.02,0.295,0.07,0.495,0.15c-0.101,0.24-0.16,0.604-0.181,1.095c-0.02,0.49-0.029,0.935-0.029,1.335l-0.21,0.15
			C326.239,131.737,326.044,131.627,325.755,131.528z"/>
		<path fill="#1D1D1B" d="M331.859,129.458c0.76-0.24,1.54-0.36,2.34-0.36c0.72,0,1.381,0.105,1.982,0.315
			c0.601,0.21,1.114,0.51,1.54,0.9c0.426,0.39,0.76,0.859,1.003,1.409c0.243,0.551,0.364,1.155,0.364,1.815
			c0,1.14-0.02,2.275-0.06,3.404c-0.04,1.131-0.06,2.326-0.06,3.586c0,0.24,0.004,0.494,0.015,0.765
			c0.01,0.271,0.055,0.51,0.135,0.72s0.195,0.386,0.345,0.525c0.15,0.141,0.375,0.21,0.676,0.21c0.1,0,0.204-0.005,0.314-0.015
			s0.215-0.045,0.315-0.105v0.66c-0.221,0.1-0.495,0.18-0.825,0.24c-0.33,0.06-0.695,0.09-1.095,0.09
			c-0.65,0-1.146-0.165-1.492-0.495c-0.345-0.33-0.547-0.755-0.608-1.275c-0.718,0.72-1.425,1.251-2.123,1.591
			c-0.697,0.34-1.554,0.51-2.57,0.51c-0.499,0-0.987-0.07-1.465-0.211c-0.479-0.14-0.902-0.369-1.271-0.689
			c-0.369-0.32-0.668-0.705-0.897-1.154c-0.229-0.451-0.344-0.965-0.344-1.546c0-1.2,0.374-2.13,1.121-2.79
			c0.748-0.66,1.779-1.1,3.095-1.32c1.076-0.18,1.918-0.334,2.526-0.465c0.607-0.129,1.057-0.265,1.345-0.404
			c0.289-0.141,0.463-0.305,0.523-0.495c0.06-0.19,0.09-0.435,0.09-0.735c0-0.5-0.06-0.979-0.18-1.439s-0.311-0.859-0.57-1.2
			c-0.26-0.34-0.6-0.615-1.02-0.825c-0.421-0.21-0.931-0.314-1.53-0.314c-0.801,0-1.545,0.18-2.235,0.539
			c-0.689,0.36-1.205,0.86-1.545,1.5h-0.33v-1.56C330.27,130.158,331.099,129.698,331.859,129.458z M335.6,136.477
			c-0.448,0.08-0.9,0.166-1.358,0.256s-0.91,0.205-1.358,0.345s-0.846,0.329-1.194,0.569c-0.348,0.24-0.627,0.541-0.836,0.9
			s-0.313,0.82-0.313,1.38c0,0.94,0.269,1.65,0.806,2.13c0.537,0.48,1.135,0.721,1.792,0.721c0.757,0,1.448-0.211,2.075-0.631
			s1.109-0.909,1.448-1.47l0.119-4.5C336.44,136.297,336.048,136.398,335.6,136.477z"/>
		<path fill="#1D1D1B" d="M158.249,176.797c-0.16,0.32-0.375,0.666-0.646,1.035c-0.27,0.371-0.609,0.715-1.02,1.035
			s-0.895,0.58-1.455,0.779c-0.561,0.201-1.21,0.301-1.949,0.301c-0.761,0-1.506-0.131-2.235-0.391
			c-0.73-0.26-1.38-0.684-1.95-1.273s-1.03-1.352-1.38-2.281c-0.351-0.93-0.525-2.045-0.525-3.344c0-1.281,0.19-2.391,0.57-3.33
			c0.38-0.941,0.874-1.727,1.485-2.355c0.609-0.631,1.299-1.1,2.069-1.41s1.546-0.465,2.325-0.465c2.221,0,3.76,1,4.62,3h0.06
			v-2.939c0-0.76-0.005-1.525-0.015-2.295c-0.011-0.771-0.021-1.506-0.03-2.205c-0.01-0.701-0.02-1.361-0.029-1.98
			c-0.011-0.62-0.025-1.17-0.045-1.65c0.239,0.041,0.469,0.075,0.689,0.105c0.22,0.029,0.439,0.045,0.66,0.045
			c0.22,0,0.436-0.016,0.645-0.045c0.211-0.03,0.445-0.064,0.705-0.105c-0.06,0.641-0.109,1.565-0.15,2.775
			c-0.039,1.211-0.074,2.545-0.104,4.004c-0.03,1.461-0.056,2.961-0.075,4.5c-0.02,1.541-0.029,2.951-0.029,4.23
			c0,1.381,0.01,2.621,0.029,3.721s0.04,2.23,0.061,3.389c-0.4-0.039-0.791-0.059-1.17-0.059c-0.36,0-0.74,0.02-1.141,0.059
			l0.09-2.85H158.249z M150.104,175.807c0.25,0.781,0.57,1.406,0.961,1.875c0.39,0.471,0.834,0.795,1.334,0.977
			c0.5,0.18,0.99,0.27,1.471,0.27c0.779,0,1.449-0.195,2.01-0.586c0.561-0.389,1.025-0.898,1.395-1.529
			c0.371-0.631,0.641-1.346,0.811-2.145c0.17-0.801,0.255-1.6,0.255-2.4c0-1.92-0.37-3.385-1.11-4.395s-1.83-1.516-3.27-1.516
			c-0.72,0-1.346,0.164-1.875,0.494c-0.53,0.33-0.971,0.791-1.32,1.381s-0.609,1.279-0.779,2.07
			c-0.17,0.789-0.256,1.635-0.256,2.535C149.729,174.038,149.854,175.028,150.104,175.807z"/>
		<path fill="#1D1D1B" d="M165.314,167.198c1.17-1.4,2.875-2.1,5.115-2.1c1.06,0,1.975,0.164,2.744,0.494s1.415,0.771,1.936,1.32
			c0.52,0.551,0.904,1.195,1.154,1.936s0.375,1.529,0.375,2.369c0,0.201-0.004,0.396-0.014,0.586
			c-0.012,0.189-0.025,0.385-0.046,0.584c-1.079-0.02-2.149-0.039-3.21-0.059s-2.13-0.031-3.21-0.031
			c-0.659,0-1.315,0.012-1.965,0.031c-0.65,0.02-1.306,0.039-1.965,0.059c-0.021,0.102-0.03,0.252-0.03,0.451v0.389
			c0,0.781,0.115,1.512,0.346,2.191c0.229,0.68,0.564,1.264,1.004,1.754s0.98,0.881,1.621,1.17c0.639,0.291,1.379,0.436,2.219,0.436
			c0.4,0,0.811-0.055,1.23-0.164c0.42-0.111,0.83-0.26,1.23-0.451c0.399-0.189,0.774-0.414,1.125-0.674
			c0.35-0.26,0.654-0.541,0.914-0.842l0.15,0.092l-0.18,1.469c-0.6,0.48-1.346,0.891-2.234,1.23c-0.891,0.34-1.816,0.51-2.775,0.51
			c-1.08,0-2.065-0.164-2.955-0.494c-0.891-0.33-1.66-0.811-2.311-1.441c-0.65-0.629-1.15-1.375-1.5-2.234s-0.525-1.789-0.525-2.789
			C163.559,170.528,164.145,168.598,165.314,167.198z M168.614,166.569c-0.51,0.34-0.931,0.764-1.26,1.273
			c-0.33,0.51-0.581,1.07-0.75,1.68c-0.171,0.611-0.275,1.186-0.315,1.727c0.62,0.02,1.266,0.039,1.936,0.059
			c0.67,0.021,1.324,0.031,1.965,0.031c0.66,0,1.33-0.01,2.01-0.031c0.68-0.02,1.34-0.039,1.98-0.059
			c0-0.541-0.045-1.111-0.135-1.711c-0.091-0.6-0.271-1.16-0.541-1.68c-0.27-0.52-0.645-0.949-1.125-1.289
			c-0.479-0.34-1.109-0.512-1.89-0.512C169.749,166.057,169.125,166.229,168.614,166.569z"/>
		<path fill="#1D1D1B" d="M188.715,162.922c-0.051-1.27-0.105-2.564-0.166-3.885c0.26,0.041,0.51,0.075,0.75,0.105
			c0.24,0.029,0.48,0.045,0.721,0.045s0.479-0.016,0.72-0.045c0.239-0.03,0.489-0.064,0.75-0.105
			c-0.06,1.32-0.115,2.615-0.165,3.885c-0.051,1.271-0.075,2.566-0.075,3.885c0,2.521,0.01,4.707,0.03,6.557
			c0.02,1.85,0.039,3.504,0.061,4.965c1.419,0,2.779-0.016,4.079-0.045c1.3-0.031,2.7-0.146,4.2-0.346
			c-0.1,0.359-0.15,0.66-0.15,0.9c0,0.221,0.051,0.49,0.15,0.809c-0.92-0.039-1.84-0.059-2.76-0.059s-1.84,0-2.76,0
			c-0.961,0-1.886,0-2.775,0c-0.891,0-1.814,0.02-2.775,0.059c0.061-1.238,0.115-2.498,0.166-3.779
			c0.049-1.279,0.074-2.58,0.074-3.9v-5.16C188.789,165.489,188.764,164.194,188.715,162.922z"/>
		<path fill="#1D1D1B" d="M205.889,165.458c0.76-0.24,1.541-0.359,2.34-0.359c0.721,0,1.381,0.105,1.982,0.314
			c0.602,0.211,1.115,0.51,1.541,0.9c0.425,0.391,0.76,0.859,1.002,1.41c0.243,0.551,0.365,1.154,0.365,1.814
			c0,1.141-0.02,2.275-0.061,3.406c-0.039,1.129-0.06,2.324-0.06,3.584c0,0.24,0.005,0.494,0.015,0.766
			c0.01,0.27,0.055,0.51,0.135,0.719c0.08,0.211,0.195,0.387,0.346,0.525c0.15,0.141,0.375,0.211,0.675,0.211
			c0.101,0,0.205-0.006,0.315-0.016c0.109-0.01,0.215-0.045,0.314-0.105v0.66c-0.221,0.102-0.494,0.18-0.824,0.24
			s-0.695,0.09-1.096,0.09c-0.649,0-1.146-0.164-1.491-0.494s-0.548-0.756-0.608-1.275c-0.718,0.721-1.426,1.25-2.123,1.59
			s-1.555,0.51-2.57,0.51c-0.499,0-0.988-0.07-1.466-0.209c-0.478-0.141-0.901-0.371-1.271-0.691
			c-0.369-0.318-0.668-0.705-0.896-1.154c-0.229-0.449-0.344-0.965-0.344-1.545c0-1.201,0.373-2.131,1.121-2.791
			c0.747-0.66,1.779-1.1,3.094-1.318c1.076-0.182,1.918-0.336,2.526-0.467c0.608-0.129,1.057-0.264,1.345-0.404
			c0.289-0.139,0.464-0.305,0.523-0.494c0.061-0.191,0.09-0.436,0.09-0.736c0-0.498-0.06-0.979-0.18-1.439
			c-0.119-0.459-0.311-0.859-0.57-1.199s-0.6-0.615-1.02-0.826c-0.42-0.209-0.93-0.314-1.529-0.314c-0.801,0-1.545,0.18-2.236,0.539
			c-0.689,0.361-1.205,0.861-1.545,1.5h-0.33v-1.559C204.299,166.159,205.129,165.698,205.889,165.458z M209.63,172.477
			c-0.448,0.08-0.901,0.166-1.358,0.256c-0.458,0.09-0.911,0.205-1.358,0.346c-0.448,0.139-0.847,0.33-1.194,0.568
			c-0.349,0.24-0.627,0.541-0.836,0.9c-0.209,0.361-0.313,0.82-0.313,1.381c0,0.939,0.269,1.65,0.806,2.129
			c0.537,0.48,1.135,0.721,1.791,0.721c0.757,0,1.448-0.209,2.076-0.631c0.626-0.42,1.109-0.908,1.447-1.469l0.119-4.5
			C210.471,172.297,210.078,172.399,209.63,172.477z"/>
		<path fill="#1D1D1B" d="M233.233,166.928c1.41,2.68,2.885,5.43,4.425,8.25c0.2-0.381,0.49-0.926,0.87-1.635
			c0.38-0.711,0.82-1.525,1.32-2.445s1.035-1.916,1.604-2.984c0.57-1.07,1.15-2.156,1.74-3.256s1.175-2.18,1.755-3.24
			s1.12-2.05,1.62-2.97h0.39c0.221,1.919,0.425,3.774,0.615,5.565c0.19,1.789,0.385,3.551,0.585,5.279
			c0.2,1.73,0.4,3.439,0.601,5.131c0.199,1.689,0.42,3.365,0.66,5.023c-0.24-0.039-0.476-0.059-0.705-0.059c-0.23,0-0.466,0-0.705,0
			c-0.24,0-0.476,0-0.705,0c-0.23,0-0.465,0.02-0.705,0.059c-0.221-2.658-0.44-5.238-0.66-7.738c-0.221-2.5-0.49-5.051-0.81-7.65
			h-0.061c-1.38,2.52-2.735,5.025-4.064,7.514c-1.331,2.49-2.596,5.096-3.796,7.816h-0.27c-1.2-2.52-2.455-5.045-3.765-7.576
			c-1.311-2.529-2.625-5.115-3.945-7.754h-0.06c-0.141,1.24-0.296,2.584-0.466,4.035c-0.17,1.449-0.325,2.879-0.465,4.289
			s-0.26,2.74-0.359,3.99c-0.101,1.25-0.15,2.275-0.15,3.074c-0.32-0.039-0.67-0.059-1.05-0.059c-0.381,0-0.73,0.02-1.05,0.059
			c0.259-1.619,0.529-3.328,0.81-5.129s0.55-3.609,0.81-5.43s0.5-3.615,0.721-5.385c0.22-1.771,0.409-3.455,0.569-5.056h0.511
			C230.429,161.489,231.823,164.249,233.233,166.928z"/>
		<path fill="#1D1D1B" d="M253.663,167.198c1.17-1.4,2.875-2.1,5.115-2.1c1.06,0,1.975,0.164,2.745,0.494
			c0.77,0.33,1.415,0.771,1.935,1.32c0.521,0.551,0.905,1.195,1.155,1.936s0.375,1.529,0.375,2.369c0,0.201-0.005,0.396-0.015,0.586
			c-0.011,0.189-0.025,0.385-0.045,0.584c-1.08-0.02-2.15-0.039-3.21-0.059c-1.061-0.02-2.13-0.031-3.21-0.031
			c-0.66,0-1.315,0.012-1.966,0.031c-0.649,0.02-1.305,0.039-1.965,0.059c-0.02,0.102-0.029,0.252-0.029,0.451v0.389
			c0,0.781,0.114,1.512,0.345,2.191c0.229,0.68,0.564,1.264,1.005,1.754c0.439,0.49,0.979,0.881,1.62,1.17
			c0.64,0.291,1.38,0.436,2.22,0.436c0.4,0,0.811-0.055,1.23-0.164c0.42-0.111,0.829-0.26,1.229-0.451
			c0.4-0.189,0.775-0.414,1.125-0.674s0.655-0.541,0.915-0.842l0.15,0.092l-0.181,1.469c-0.6,0.48-1.345,0.891-2.234,1.23
			c-0.891,0.34-1.815,0.51-2.775,0.51c-1.08,0-2.065-0.164-2.955-0.494s-1.66-0.811-2.31-1.441c-0.65-0.629-1.15-1.375-1.5-2.234
			c-0.351-0.859-0.525-1.789-0.525-2.789C251.908,170.528,252.493,168.598,253.663,167.198z M256.964,166.569
			c-0.511,0.34-0.931,0.764-1.261,1.273s-0.58,1.07-0.75,1.68c-0.17,0.611-0.274,1.186-0.314,1.727
			c0.619,0.02,1.265,0.039,1.935,0.059c0.67,0.021,1.325,0.031,1.965,0.031c0.66,0,1.33-0.01,2.011-0.031
			c0.68-0.02,1.339-0.039,1.979-0.059c0-0.541-0.045-1.111-0.135-1.711s-0.271-1.16-0.54-1.68c-0.271-0.52-0.646-0.949-1.125-1.289
			c-0.48-0.34-1.11-0.512-1.89-0.512C258.099,166.057,257.474,166.229,256.964,166.569z"/>
		<path fill="#1D1D1B" d="M274.424,167.528c-0.291-0.1-0.585-0.15-0.886-0.15c-0.479,0-0.91,0.111-1.29,0.33
			c-0.38,0.221-0.7,0.516-0.96,0.885c-0.26,0.371-0.46,0.811-0.6,1.32c-0.141,0.51-0.21,1.055-0.21,1.635v3.301
			c0,1.34,0.005,2.365,0.015,3.074c0.01,0.711,0.045,1.285,0.105,1.725c-0.4-0.039-0.801-0.059-1.2-0.059
			c-0.44,0-0.86,0.02-1.26,0.059c0.06-0.68,0.095-1.604,0.104-2.773s0.016-2.605,0.016-4.305v-0.961c0-0.779-0.006-1.68-0.016-2.699
			c-0.01-1.021-0.045-2.191-0.104-3.512c0.22,0.041,0.43,0.076,0.63,0.105c0.199,0.031,0.409,0.045,0.63,0.045
			c0.18,0,0.37-0.014,0.57-0.045c0.199-0.029,0.409-0.064,0.63-0.105c-0.08,0.721-0.125,1.291-0.135,1.711
			c-0.011,0.42-0.016,0.82-0.016,1.199l0.061,0.031c1.18-2.16,2.499-3.24,3.96-3.24c0.18,0,0.334,0.01,0.465,0.029
			c0.13,0.021,0.295,0.07,0.495,0.15c-0.101,0.24-0.16,0.605-0.181,1.096c-0.02,0.49-0.029,0.934-0.029,1.334l-0.21,0.15
			C274.908,167.739,274.713,167.627,274.424,167.528z"/>
		<path fill="#1D1D1B" d="M277.409,169.208c0.439-0.939,1.015-1.715,1.725-2.324s1.525-1.061,2.445-1.35
			c0.92-0.291,1.86-0.436,2.82-0.436c1.1,0,2.085,0.135,2.955,0.404s1.494,0.576,1.875,0.916c-0.141,0.299-0.266,0.615-0.375,0.945
			c-0.11,0.33-0.205,0.674-0.285,1.033h-0.24c-0.14-0.258-0.33-0.523-0.57-0.795c-0.239-0.27-0.524-0.52-0.854-0.75
			c-0.33-0.229-0.695-0.42-1.095-0.568c-0.4-0.15-0.84-0.227-1.32-0.227c-0.9,0-1.676,0.166-2.325,0.496
			c-0.65,0.33-1.18,0.785-1.59,1.365s-0.71,1.264-0.9,2.055c-0.189,0.791-0.284,1.645-0.284,2.564c0,2.061,0.439,3.615,1.319,4.666
			c0.88,1.049,2.17,1.574,3.87,1.574c0.4,0,0.811-0.055,1.23-0.164c0.42-0.111,0.829-0.26,1.229-0.451
			c0.4-0.189,0.775-0.414,1.125-0.674s0.655-0.541,0.915-0.842l0.15,0.092c-0.101,0.479-0.16,0.969-0.181,1.469
			c-0.6,0.48-1.345,0.891-2.234,1.23c-0.891,0.34-1.815,0.51-2.775,0.51c-0.86,0-1.725-0.125-2.595-0.375s-1.655-0.67-2.355-1.26
			s-1.265-1.355-1.694-2.295c-0.431-0.939-0.646-2.09-0.646-3.449C276.749,171.268,276.969,170.149,277.409,169.208z"/>
		<path fill="#1D1D1B" d="M293.294,167.198c1.17-1.4,2.875-2.1,5.115-2.1c1.06,0,1.975,0.164,2.745,0.494
			c0.77,0.33,1.415,0.771,1.935,1.32c0.521,0.551,0.905,1.195,1.155,1.936s0.375,1.529,0.375,2.369c0,0.201-0.005,0.396-0.015,0.586
			c-0.011,0.189-0.025,0.385-0.045,0.584c-1.08-0.02-2.15-0.039-3.21-0.059c-1.061-0.02-2.13-0.031-3.21-0.031
			c-0.66,0-1.315,0.012-1.966,0.031c-0.649,0.02-1.305,0.039-1.965,0.059c-0.02,0.102-0.029,0.252-0.029,0.451v0.389
			c0,0.781,0.114,1.512,0.345,2.191c0.229,0.68,0.564,1.264,1.005,1.754c0.439,0.49,0.979,0.881,1.62,1.17
			c0.64,0.291,1.38,0.436,2.22,0.436c0.4,0,0.811-0.055,1.23-0.164c0.42-0.111,0.829-0.26,1.229-0.451
			c0.4-0.189,0.775-0.414,1.125-0.674s0.655-0.541,0.915-0.842l0.15,0.092l-0.181,1.469c-0.6,0.48-1.345,0.891-2.234,1.23
			c-0.891,0.34-1.815,0.51-2.775,0.51c-1.08,0-2.065-0.164-2.955-0.494s-1.66-0.811-2.31-1.441c-0.65-0.629-1.15-1.375-1.5-2.234
			c-0.351-0.859-0.525-1.789-0.525-2.789C291.539,170.528,292.124,168.598,293.294,167.198z M296.595,166.569
			c-0.511,0.34-0.931,0.764-1.261,1.273s-0.58,1.07-0.75,1.68c-0.17,0.611-0.274,1.186-0.314,1.727
			c0.619,0.02,1.265,0.039,1.935,0.059c0.67,0.021,1.325,0.031,1.965,0.031c0.66,0,1.33-0.01,2.011-0.031
			c0.68-0.02,1.339-0.039,1.979-0.059c0-0.541-0.045-1.111-0.135-1.711s-0.271-1.16-0.54-1.68c-0.271-0.52-0.646-0.949-1.125-1.289
			c-0.48-0.34-1.11-0.512-1.89-0.512C297.729,166.057,297.104,166.229,296.595,166.569z"/>
		<path fill="#1D1D1B" d="M317.909,176.797c-0.16,0.32-0.375,0.666-0.645,1.035c-0.271,0.371-0.61,0.715-1.021,1.035
			s-0.896,0.58-1.455,0.779c-0.56,0.201-1.21,0.301-1.95,0.301c-0.76,0-1.505-0.131-2.234-0.391c-0.73-0.26-1.38-0.684-1.95-1.273
			s-1.03-1.352-1.38-2.281c-0.351-0.93-0.525-2.045-0.525-3.344c0-1.281,0.19-2.391,0.57-3.33c0.38-0.941,0.875-1.727,1.485-2.355
			c0.609-0.631,1.3-1.1,2.069-1.41s1.545-0.465,2.325-0.465c2.22,0,3.76,1,4.62,3h0.06v-2.939c0-0.76-0.005-1.525-0.015-2.295
			c-0.011-0.771-0.021-1.506-0.03-2.205c-0.01-0.701-0.02-1.361-0.029-1.98c-0.011-0.62-0.025-1.17-0.046-1.65
			c0.24,0.041,0.47,0.075,0.69,0.105c0.22,0.029,0.439,0.045,0.66,0.045c0.22,0,0.435-0.016,0.645-0.045
			c0.21-0.03,0.445-0.064,0.705-0.105c-0.06,0.641-0.11,1.565-0.149,2.775c-0.041,1.211-0.075,2.545-0.105,4.004
			c-0.03,1.461-0.055,2.961-0.075,4.5c-0.02,1.541-0.029,2.951-0.029,4.23c0,1.381,0.01,2.621,0.029,3.721
			c0.021,1.1,0.04,2.23,0.061,3.389c-0.4-0.039-0.79-0.059-1.17-0.059c-0.36,0-0.74,0.02-1.141,0.059l0.091-2.85H317.909z
			 M309.765,175.807c0.249,0.781,0.569,1.406,0.96,1.875c0.39,0.471,0.835,0.795,1.335,0.977c0.499,0.18,0.989,0.27,1.47,0.27
			c0.78,0,1.45-0.195,2.01-0.586c0.56-0.389,1.024-0.898,1.396-1.529c0.369-0.631,0.64-1.346,0.81-2.145
			c0.17-0.801,0.255-1.6,0.255-2.4c0-1.92-0.37-3.385-1.109-4.395c-0.74-1.01-1.83-1.516-3.271-1.516
			c-0.72,0-1.345,0.164-1.875,0.494s-0.97,0.791-1.32,1.381c-0.35,0.59-0.61,1.279-0.779,2.07c-0.171,0.789-0.255,1.635-0.255,2.535
			C309.39,174.038,309.514,175.028,309.765,175.807z"/>
		<path fill="#FFFFFF" d="M166.009,196.629c-1.992,0.152-2.039,0.223-2.32,2.121c-0.48,3.117-0.844,5.73-1.207,8.543
			c-0.281,2.227-0.141,2.273,1.688,2.449l-0.176,0.645h-5.543l0.176-0.645c1.793-0.176,1.887-0.246,2.227-2.449
			c0.48-3.223,0.984-6.141,1.465-9.293h-0.047l-7.418,12.246h-0.574c-0.691-3.891-1.418-7.734-2.262-12.023h-0.047l-1.652,6.094
			c-0.598,2.18-0.914,3.305-1.008,4.102c-0.141,0.891,0.023,1.172,1.746,1.324l-0.141,0.645h-5.109l0.164-0.645
			c1.277-0.129,1.734-0.41,2.063-1.301c0.41-1.031,0.844-2.355,1.664-5.156l1.195-4.16c0.621-2.203,0.504-2.297-1.629-2.496
			l0.188-0.645h3.621c0.773,3.68,1.523,7.23,2.449,11.309l7.113-11.309h3.527L166.009,196.629z"/>
		<path fill="#FFFFFF" d="M175.044,208.442c-1.16,1.418-2.625,2.215-3.152,2.215c-0.457,0-0.668-0.363-0.352-1.945l0.422-2.121
			h-0.047c-0.832,1.16-1.91,2.285-2.953,3.105c-0.762,0.621-1.43,0.961-2.039,0.961c-0.551,0-1.266-0.703-1.266-2.496
			c0-2.285,1.055-4.781,2.754-6.176c1.113-0.914,2.672-1.605,3.984-1.605c0.457,0,0.938,0.07,1.395,0.141
			c0.27,0.07,0.551,0.152,0.797,0.152l0.047,0.094c-0.34,1.313-1.055,4.441-1.535,7.219c-0.176,0.797-0.094,1.031,0.047,1.031
			c0.164,0,0.938-0.527,1.629-1.172L175.044,208.442z M172.278,204.774c0.293-0.891,0.574-2.355,0.727-3.094
			c-0.316-0.152-0.891-0.316-1.512-0.316c-0.656,0-1.301,0.211-1.688,0.504c-1.559,1.125-2.473,3.715-2.473,5.953
			c0,0.984,0.316,1.465,0.621,1.465C168.892,209.286,171.563,206.356,172.278,204.774z"/>
		<path fill="#FFFFFF" d="M186.458,208.512c-1.242,1.418-2.52,2.145-3.094,2.145c-0.34,0-0.539-0.258-0.539-0.844
			c0-0.352,0.07-0.832,0.223-1.441c0.434-1.676,0.82-3.387,1.23-5.039c0.117-0.504,0.176-0.855,0.176-1.102
			c0-0.375-0.129-0.504-0.352-0.504c-1.031,0-3.715,2.754-4.887,4.746c-0.293,1.102-0.633,2.402-0.891,3.75
			c-0.504,0.117-1.055,0.281-1.441,0.434l-0.164-0.152c0.621-2.379,1.313-5.203,1.863-7.605c0.176-0.715,0.105-0.914-0.047-0.914
			c-0.188,0-0.879,0.527-1.465,1.078l-0.305-0.574c1.148-1.289,2.449-2.109,3.07-2.109c0.27,0,0.41,0.223,0.41,0.715
			c0,0.41-0.094,1.008-0.293,1.805l-0.434,1.828h0.047c1.57-2.145,3.293-3.387,4.184-3.891c0.598-0.34,1.031-0.457,1.465-0.457
			c0.352,0,0.762,0.152,0.762,1.16c0,0.445-0.082,1.055-0.281,1.887c-0.363,1.582-0.75,3.223-1.137,4.805
			c-0.164,0.621-0.117,0.809,0.047,0.809c0.199,0,0.773-0.375,1.488-1.102L186.458,208.512z"/>
		<path fill="#FFFFFF" d="M197.509,208.442c-1.16,1.418-2.625,2.215-3.152,2.215c-0.457,0-0.668-0.363-0.352-1.945l0.422-2.121
			h-0.047c-0.832,1.16-1.91,2.285-2.953,3.105c-0.762,0.621-1.43,0.961-2.039,0.961c-0.551,0-1.266-0.703-1.266-2.496
			c0-2.285,1.055-4.781,2.754-6.176c1.113-0.914,2.672-1.605,3.984-1.605c0.457,0,0.938,0.07,1.395,0.141
			c0.27,0.07,0.551,0.152,0.797,0.152l0.047,0.094c-0.34,1.313-1.055,4.441-1.535,7.219c-0.176,0.797-0.094,1.031,0.047,1.031
			c0.164,0,0.938-0.527,1.629-1.172L197.509,208.442z M194.743,204.774c0.293-0.891,0.574-2.355,0.727-3.094
			c-0.316-0.152-0.891-0.316-1.512-0.316c-0.656,0-1.301,0.211-1.688,0.504c-1.559,1.125-2.473,3.715-2.473,5.953
			c0,0.984,0.316,1.465,0.621,1.465C191.356,209.286,194.028,206.356,194.743,204.774z"/>
		<path fill="#FFFFFF" d="M208.396,200.954c-0.645,0.668-1.219,0.914-1.559,1.008c-0.164,0-0.34,0.023-0.598,0.047
			c0.094,0.27,0.188,0.598,0.188,1.254c0,1.605-0.891,2.754-1.676,3.41c-0.574,0.445-1.488,1.008-2.836,1.242
			c-0.328,0.27-0.527,0.551-0.527,0.797c0,0.328,0.551,0.715,1.652,1.313c2.074,1.102,2.953,1.969,2.953,2.906
			c0,1.852-3.047,3.141-5.133,3.141c-2.18,0-4.078-1.148-4.008-2.52c0.047-0.902,1.148-1.887,3.727-3.234
			c-0.563-0.363-0.844-0.797-0.82-1.078c0-0.316,0.258-0.727,1.324-1.348c-1.207-0.316-1.898-1.195-1.898-2.707
			c0-1.418,0.691-2.766,1.793-3.68c0.914-0.738,2.063-1.125,2.836-1.125c0.668,0,1.441,0.164,1.898,0.645
			c1.336-0.047,2.109-0.305,2.543-0.551L208.396,200.954z M204.505,213.458c0-0.621-0.645-1.195-1.699-1.793
			c-0.715-0.434-1.348-0.797-1.582-0.914c-1.711,0.785-2.637,1.652-2.637,2.449c0,1.125,1.512,1.91,3.117,1.91
			C203.356,215.11,204.505,214.325,204.505,213.458z M204.915,203.403c0-1.301-0.598-2.203-1.629-2.203
			c-0.668,0-1.254,0.375-1.699,0.926c-0.48,0.656-0.844,1.664-0.844,2.789c0,1.395,0.715,2.086,1.582,2.086
			C203.521,207,204.915,205.758,204.915,203.403z"/>
		<path fill="#FFFFFF" d="M218.649,208.418c-1.008,1.254-2.473,2.238-3.176,2.238c-0.27,0-0.527-0.152-0.527-0.879
			c0-0.363,0.059-0.867,0.223-1.57c0.188-0.797,0.258-1.09,0.41-1.852h-0.082c-0.984,1.348-2.25,2.66-3.48,3.551
			c-0.691,0.504-1.336,0.75-1.91,0.75c-0.469,0-0.973-0.246-0.973-1.324c0-0.375,0.059-0.844,0.199-1.441
			c0.434-1.781,0.844-3.551,1.277-5.309c0.117-0.504,0.094-0.668-0.082-0.668c-0.141,0-0.738,0.363-1.605,1.125l-0.281-0.598
			c1.313-1.324,2.637-2.063,3.211-2.063c0.281,0,0.434,0.141,0.434,0.574c0,0.293-0.07,0.738-0.211,1.348
			c-0.41,1.77-0.82,3.551-1.254,5.355c-0.07,0.352-0.105,0.633-0.105,0.855c0,0.469,0.152,0.656,0.422,0.656
			c1.289,0,3.855-3,4.816-4.758c0.223-0.938,0.457-2.039,0.773-3.48l1.395-0.551h0.234c-0.598,2.426-1.219,4.898-1.77,7.805
			c-0.152,0.715-0.082,0.879,0.07,0.879c0.211,0,1.055-0.574,1.676-1.195L218.649,208.418z"/>
		<path fill="#FFFFFF" d="M229.501,208.442c-1.16,1.418-2.625,2.215-3.152,2.215c-0.457,0-0.668-0.363-0.352-1.945l0.422-2.121
			h-0.047c-0.832,1.16-1.91,2.285-2.953,3.105c-0.762,0.621-1.43,0.961-2.039,0.961c-0.551,0-1.266-0.703-1.266-2.496
			c0-2.285,1.055-4.781,2.754-6.176c1.113-0.914,2.672-1.605,3.984-1.605c0.457,0,0.938,0.07,1.395,0.141
			c0.27,0.07,0.551,0.152,0.797,0.152l0.047,0.094c-0.34,1.313-1.055,4.441-1.535,7.219c-0.176,0.797-0.094,1.031,0.047,1.031
			c0.164,0,0.938-0.527,1.629-1.172L229.501,208.442z M226.735,204.774c0.293-0.891,0.574-2.355,0.727-3.094
			c-0.316-0.152-0.891-0.316-1.512-0.316c-0.656,0-1.301,0.211-1.688,0.504c-1.559,1.125-2.473,3.715-2.473,5.953
			c0,0.984,0.316,1.465,0.621,1.465C223.349,209.286,226.021,206.356,226.735,204.774z"/>
	</g>
</g>
<g>
</g>
<g>
</g>
<g>
</g>
<g>
</g>
<g>
</g>
<g>
</g>
</svg>
